/* XPM */
static char * ovito_16x16_xpm[] = {
"16 16 96 2",
"  	c None",
". 	c #CB2809",
"+ 	c #CB2103",
"@ 	c #BD1F02",
"# 	c #F24C2B",
"$ 	c #FB3511",
"% 	c #F12601",
"& 	c #E72300",
"* 	c #C41E01",
"= 	c #D83E21",
"- 	c #FF4622",
"; 	c #FC2902",
"> 	c #FD2700",
", 	c #F62600",
"' 	c #DD2200",
") 	c #CB2C0F",
"! 	c #EE2905",
"~ 	c #F82600",
"{ 	c #F72600",
"] 	c #E12300",
"^ 	c #B01C02",
"/ 	c #AF1D02",
"( 	c #DC2200",
"_ 	c #EE2500",
": 	c #F22500",
"< 	c #EB2400",
"[ 	c #D32100",
"} 	c #BC1D00",
"| 	c #D62100",
"1 	c #DB2100",
"2 	c #D12000",
"3 	c #AD1B01",
"4 	c #F33C1A",
"5 	c #C01D00",
"6 	c #9F1901",
"7 	c #A51A01",
"8 	c #B21B00",
"9 	c #F0290A",
"0 	c #DE2200",
"a 	c #0646A0",
"b 	c #096DFB",
"c 	c #0055CC",
"d 	c #C41F01",
"e 	c #DA1D01",
"f 	c #1D66CA",
"g 	c #287DF4",
"h 	c #065DDA",
"i 	c #0050C3",
"j 	c #004FC1",
"k 	c #5BA200",
"l 	c #2A84FD",
"m 	c #0B6EFA",
"n 	c #0063F0",
"o 	c #005DE4",
"p 	c #0051C6",
"q 	c #023C8C",
"r 	c #1CD500",
"s 	c #18B202",
"t 	c #0655C4",
"u 	c #096AF5",
"v 	c #0068FC",
"w 	c #0067FC",
"x 	c #0057D4",
"y 	c #0143A1",
"z 	c #20B909",
"A 	c #1DD501",
"B 	c #18BB00",
"C 	c #0060E9",
"D 	c #0067FA",
"E 	c #0062EE",
"F 	c #0056D0",
"G 	c #014BB5",
"H 	c #015EE3",
"I 	c #0164DB",
"J 	c #1DE100",
"K 	c #19C600",
"L 	c #48FC2D",
"M 	c #23EC04",
"N 	c #1EEC00",
"O 	c #1BD200",
"P 	c #0155CB",
"Q 	c #0061EB",
"R 	c #005ADB",
"S 	c #0249B0",
"T 	c #19BE01",
"U 	c #21E304",
"V 	c #20F700",
"W 	c #21FD00",
"X 	c #1EEA00",
"Y 	c #024FBE",
"Z 	c #1BD600",
"` 	c #1FF400",
" .	c #20FA00",
"..	c #1DDF00",
"+.	c #1CCF01",
"@.	c #1CD501",
"                . + @           ",
"              # $ % & *         ",
"            = - ; > , '         ",
"            ) ! ~ > { ] ^       ",
"            / ( _ : < [         ",
"              } | 1 2 3         ",
"            4 5 6 7 8           ",
"            9       0           ",
"      a   b c       d e         ",
"  f g h i j           k         ",
"  l m n o p q         r s       ",
"t u v w n x y         z A B     ",
"  C D v E F G H I J K L M N O   ",
"  P C Q R S         T U V W X   ",
"      Y               Z `  ...  ",
"                        +.@.    "};
