/* XPM */
static char * ovito_32x32_xpm[] = {
"32 32 349 2",
"  	c None",
". 	c #B02105",
"+ 	c #BC260B",
"@ 	c #D22B0D",
"# 	c #DC2A09",
"$ 	c #DB2403",
"% 	c #D62101",
"& 	c #CB1F00",
"* 	c #BA1F02",
"= 	c #CE3215",
"- 	c #F94928",
"; 	c #FB3E1C",
"> 	c #F22F0B",
", 	c #ED2703",
"' 	c #EA2400",
") 	c #E42300",
"! 	c #D92100",
"~ 	c #C21E01",
"{ 	c #C63015",
"] 	c #FF5B3A",
"^ 	c #FE522E",
"/ 	c #FE3914",
"( 	c #F82B05",
"_ 	c #F62601",
": 	c #F42500",
"< 	c #F02500",
"[ 	c #E72300",
"} 	c #DA2100",
"| 	c #BC1D00",
"1 	c #A5230B",
"2 	c #F34F30",
"3 	c #FF5A38",
"4 	c #FE421E",
"5 	c #FD2E09",
"6 	c #FA2801",
"7 	c #FB2700",
"8 	c #F72500",
"9 	c #F02400",
"0 	c #D02000",
"a 	c #AB1D03",
"b 	c #B5290F",
"c 	c #FA4E2D",
"d 	c #FF4522",
"e 	c #FB310C",
"f 	c #F92802",
"g 	c #FC2700",
"h 	c #FE2600",
"i 	c #FE2700",
"j 	c #FA2600",
"k 	c #E92300",
"l 	c #D72100",
"m 	c #B21D03",
"n 	c #B9280D",
"o 	c #EB3B1C",
"p 	c #F2320E",
"q 	c #F22803",
"r 	c #F72600",
"s 	c #FF2700",
"t 	c #E92400",
"u 	c #D92200",
"v 	c #B71C00",
"w 	c #B12107",
"x 	c #D92B0C",
"y 	c #E42704",
"z 	c #ED2501",
"A 	c #F42600",
"B 	c #F92600",
"C 	c #F12500",
"D 	c #D52100",
"E 	c #B41B00",
"F 	c #A31C03",
"G 	c #C92203",
"H 	c #DB2201",
"I 	c #E62300",
"J 	c #EF2500",
"K 	c #F52600",
"L 	c #F22500",
"M 	c #EB2400",
"N 	c #E02300",
"O 	c #CE2000",
"P 	c #A91B02",
"Q 	c #941902",
"R 	c #BB1D01",
"S 	c #CF2000",
"T 	c #DD2200",
"U 	c #EE2400",
"V 	c #ED2400",
"W 	c #E22200",
"X 	c #D62000",
"Y 	c #C21E00",
"Z 	c #9D1A03",
"` 	c #A31900",
" .	c #C01D00",
"..	c #E02200",
"+.	c #E32200",
"@.	c #E12200",
"#.	c #C61E00",
"$.	c #A91A00",
"%.	c #8D1B07",
"&.	c #A61900",
"*.	c #C81F00",
"=.	c #D22000",
"-.	c #D12000",
";.	c #CC1F00",
">.	c #C11D00",
",.	c #AB1A00",
"'.	c #F84322",
").	c #BF1C00",
"!.	c #971700",
"~.	c #AE1A00",
"{.	c #B71B00",
"].	c #BB1D00",
"^.	c #B81C00",
"/.	c #B11B00",
"(.	c #9A1700",
"_.	c #E74425",
":.	c #F62600",
"<.	c #B51C02",
"[.	c #831705",
"}.	c #8D1703",
"|.	c #911702",
"1.	c #931701",
"2.	c #B21B00",
"3.	c #BC453B",
"4.	c #FD310B",
"5.	c #F92700",
"6.	c #DB2100",
"7.	c #E82400",
"8.	c #B92004",
"9.	c #1676FA",
"0.	c #AD3A4F",
"a.	c #EC2000",
"b.	c #BF1D00",
"c.	c #C92001",
"d.	c #2075ED",
"e.	c #0067FA",
"f.	c #0065F8",
"g.	c #2C408B",
"h.	c #A71C03",
"i.	c #E32300",
"j.	c #DF2200",
"k.	c #084498",
"l.	c #0B4CA8",
"m.	c #074BAB",
"n.	c #0346A6",
"o.	c #003E98",
"p.	c #155CC1",
"q.	c #056AFB",
"r.	c #0066F7",
"s.	c #0152C4",
"t.	c #D32000",
"u.	c #E82300",
"v.	c #C11B04",
"w.	c #1156B6",
"x.	c #2876E6",
"y.	c #2172E7",
"z.	c #0E61D8",
"A.	c #0355CA",
"B.	c #004FC0",
"C.	c #0048B1",
"D.	c #005DE2",
"E.	c #0059DA",
"F.	c #B81A01",
"G.	c #5A8E01",
"H.	c #1158BC",
"I.	c #398CFC",
"J.	c #348DFF",
"K.	c #1874F6",
"L.	c #0762E5",
"M.	c #015BDC",
"N.	c #0057D5",
"O.	c #0053C9",
"P.	c #004BB5",
"Q.	c #00409B",
"R.	c #0EAA03",
"S.	c #12E900",
"T.	c #1BE200",
"U.	c #287BF1",
"V.	c #3691FE",
"W.	c #1E7EFE",
"X.	c #096AF5",
"Y.	c #0163ED",
"Z.	c #0060E9",
"`.	c #005DE3",
" +	c #0059D8",
".+	c #004AB3",
"++	c #023A88",
"@+	c #1AC800",
"#+	c #1EE900",
"$+	c #1BBF03",
"%+	c #0B56C0",
"&+	c #247DFB",
"*+	c #1C7DFE",
"=+	c #096EFC",
"-+	c #0167F7",
";+	c #0065F6",
">+	c #0063F2",
",+	c #0061EC",
"'+	c #00419D",
")+	c #18AF02",
"!+	c #1DE600",
"~+	c #1BD101",
"{+	c #117B01",
"]+	c #0857C9",
"^+	c #126FF4",
"/+	c #096CFA",
"(+	c #0268FA",
"_+	c #0068FB",
":+	c #0066F8",
"<+	c #0064F2",
"[+	c #005ADB",
"}+	c #0052C7",
"|+	c #0045A8",
"1+	c #05357C",
"2+	c #128602",
"3+	c #1CDB00",
"4+	c #1DE400",
"5+	c #17B100",
"6+	c #15A200",
"7+	c #0664EB",
"8+	c #0266F4",
"9+	c #0067FB",
"0+	c #0069FE",
"a+	c #0068FE",
"b+	c #0067FC",
"c+	c #0065F5",
"d+	c #005CDE",
"e+	c #0053CA",
"f+	c #0046A9",
"g+	c #004DBD",
"h+	c #0249AD",
"i+	c #0344A2",
"j+	c #147D04",
"k+	c #34C01F",
"l+	c #1EC705",
"m+	c #20E703",
"n+	c #1ED404",
"o+	c #1BD200",
"p+	c #1ACB00",
"q+	c #17BA00",
"r+	c #179B03",
"s+	c #0252C2",
"t+	c #015FE5",
"u+	c #0069FD",
"v+	c #0065F4",
"w+	c #0061EB",
"x+	c #005BDD",
"y+	c #0052C8",
"z+	c #00429F",
"A+	c #005CE0",
"B+	c #0063EF",
"C+	c #0062EC",
"D+	c #005FE7",
"E+	c #015FD6",
"F+	c #1CD500",
"G+	c #18B901",
"H+	c #18AB02",
"I+	c #189E04",
"J+	c #53F63B",
"K+	c #4BFF30",
"L+	c #2CEC10",
"M+	c #1FE601",
"N+	c #1EE600",
"O+	c #1CE200",
"P+	c #1BD700",
"Q+	c #17B900",
"R+	c #034DBB",
"S+	c #005ADC",
"T+	c #0067F9",
"U+	c #0062F0",
"V+	c #005FE6",
"W+	c #0058D7",
"X+	c #013E96",
"Y+	c #0355C8",
"Z+	c #0455CC",
"`+	c #0258D3",
" @	c #0885AD",
".@	c #1FF200",
"+@	c #1FEE00",
"@@	c #1EEC00",
"#@	c #1CE600",
"$@	c #3BEF21",
"%@	c #31F415",
"&@	c #22EE04",
"*@	c #20F100",
"=@	c #1FF300",
"-@	c #1FF000",
";@	c #1BD300",
">@	c #19AB05",
",@	c #0152C8",
"'@	c #005DE1",
")@	c #0061ED",
"!@	c #0064F1",
"~@	c #0062EF",
"{@	c #0060E7",
"]@	c #0046AA",
"^@	c #1CCA04",
"/@	c #1BCE01",
"(@	c #1CDD00",
"_@	c #28DF0C",
":@	c #22EA04",
"<@	c #20F200",
"[@	c #20F900",
"}@	c #21FB00",
"|@	c #20F800",
"1@	c #1CDE00",
"2@	c #19B704",
"3@	c #005BDC",
"4@	c #005EE4",
"5@	c #0059D9",
"6@	c #0054CB",
"7@	c #0048AF",
"8@	c #148404",
"9@	c #18B701",
"0@	c #1DD701",
"a@	c #20F500",
"b@	c #20FB00",
"c@	c #20FF00",
"d@	c #21FC00",
"e@	c #1FF400",
"f@	c #1DE200",
"g@	c #1BBC03",
"h@	c #034EBB",
"i@	c #0151C3",
"j@	c #0051C5",
"k@	c #014CB8",
"l@	c #0346A8",
"m@	c #16AA00",
"n@	c #1BD100",
"o@	c #1DE500",
"p@	c #20FA00",
"q@	c #20FD00",
"r@	c #1FF100",
"s@	c #1DDD00",
"t@	c #179A03",
"u@	c #18C300",
"v@	c #1EEB00",
"w@	c #1FF600",
"x@	c #1DE700",
"y@	c #1BCA01",
"z@	c #18A203",
"A@	c #18C400",
"B@	c #1CDA00",
"C@	c #1DE300",
"D@	c #1DE000",
"E@	c #1BCB01",
"F@	c #1AB604",
"G@	c #1BBE03",
"H@	c #1BC204",
"                                    .                           ",
"                              + @ # $ % & *                     ",
"                            = - ; > , ' ) ! ~                   ",
"                          { ] ^ / ( _ : < [ } |                 ",
"                        1 2 3 4 5 6 7 7 8 9 ) 0 a               ",
"                        b c d e f g h i j : k l m               ",
"                        n o p q r g s i 7 : t u v               ",
"                        w x y z A B 7 7 r C [ D E               ",
"                        F G H I J : r K L M N O P               ",
"                        Q R S T I M U V t W X Y Z               ",
"                          `  .0 } ..+.@.T D #.$.                ",
"                          %.&.| *.0 =.-.;.>.,.                  ",
"                          '.).!.~.{.].^./.(.                    ",
"                        _.6 :.<.[.}.|.1.2.=.                    ",
"                      3.4.5.S           6.7.8.                  ",
"                      9.0.a.            b.t c.                  ",
"                    d.e.f.g.            h.i.j.                  ",
"        k.l.m.n.o.p.q.r.s.                t.u.v.                ",
"      w.x.y.z.A.B.C.D.E.                  F.a.G.                ",
"    H.I.J.K.L.M.N.O.P.Q.                  R.S.T.                ",
"    U.V.W.X.Y.Z.`. +O..+++                  @+#+$+              ",
"  %+&+*+=+-+;+>+,+`.N.B.'+                  )+!+~+{+            ",
"  ]+^+/+(+_+_+:+<+Z.[+}+|+1+                2+3+4+5+5+6+        ",
"  A.7+8+9+0+a+b+c+,+d+e+f+.+g+h+i+        j+k+l+m+n+o+p+q+r+    ",
"  s+t+>+e.u+0+9+v+w+x+y+z+A+B+C+D+E+F+G+H+I+J+K+L+M+N+O+P+Q+    ",
"  R+S+,+;+T+e.r.U+V+W+B.X+Y+Z+`+A+ @.@+@@@#@$@%@&@*@=@-@!+;@>@  ",
"    ,@'@)@!@<+~@{@S+e+]@              ^@/@(@_@:@<@[@}@|@-@1@2@  ",
"      y+3@`.4@'@5@6@7@                  8@9@0@#+a@b@c@d@e@f@g@  ",
"        h@i@O.j@k@l@                      m@n@o@=@p@q@p@r@s@    ",
"                                          t@u@3+v@=@w@=@x@y@    ",
"                                            z@A@B@C@!+D@E@      ",
"                                                F@G@H@          "};
